# This file uses centimeters as units for non-parametric coordinates.

mtllib LAMP1.mtl
g default
v 4.016030 0.784831 34.306071
v 4.317352 0.784831 34.306071
v 4.016030 0.883610 34.306071
v 4.317352 0.883610 34.306071
v 4.016030 0.883610 34.004747
v 4.317352 0.883610 34.004747
v 4.016030 0.784831 34.004747
v 4.317352 0.784831 34.004747
v 4.080172 0.919319 34.241929
v 4.253209 0.919319 34.241929
v 4.253209 0.919319 34.068891
v 4.080172 0.919319 34.068891
v 4.080172 1.999827 34.241929
v 4.253209 1.999827 34.241929
v 4.253209 1.999827 34.068891
v 4.080172 1.999827 34.068891
v 4.025893 2.031058 34.296209
v 4.307488 2.031058 34.296209
v 4.307488 2.031058 34.014612
v 4.025893 2.031058 34.014612
v 4.166691 2.031058 34.346594
v 4.357874 2.031058 34.155410
v 4.166691 2.031058 33.964227
v 3.975507 2.031058 34.155410
v 4.177942 2.389589 34.354210
v 4.309303 2.389589 34.282742
v 4.365489 2.389589 34.144155
v 4.294022 2.389589 34.012800
v 4.155437 2.389589 33.956611
v 4.024077 2.389589 34.028079
v 3.967890 2.389589 34.166663
v 4.039359 2.389589 34.298020
v 4.180773 2.389589 34.404216
v 4.345176 2.389589 34.314770
v 4.415496 2.389589 34.141325
v 4.326051 2.389589 33.976928
v 4.152606 2.389589 33.906600
v 3.988204 2.389589 33.996050
v 3.917884 2.389589 34.169491
v 4.007331 2.389589 34.333892
v 4.169103 2.567720 34.198046
v 4.197276 2.567720 34.182714
v 4.209326 2.567720 34.152996
v 4.193999 2.567720 34.124823
v 4.164276 2.567720 34.112770
v 4.136103 2.567720 34.128099
v 4.124053 2.567720 34.157822
v 4.139381 2.567720 34.185995
v 4.043683 2.048712 34.278418
v 4.166691 2.048712 34.322439
v 4.291284 2.371935 34.266652
v 4.176520 2.371935 34.329090
v 4.289699 2.048712 34.278418
v 4.340371 2.371935 34.145576
v 4.333718 2.048712 34.155410
v 4.277934 2.371935 34.030821
v 4.289699 2.048712 34.032401
v 4.156859 2.371935 33.981731
v 4.166690 2.048712 33.988381
v 4.042096 2.371935 34.044169
v 4.043683 2.048712 34.032401
v 3.993008 2.371935 34.165240
v 3.999662 2.048712 34.155410
v 4.055447 2.371935 34.279999
v 3.943753 0.700153 33.932470
v 4.389629 0.700153 33.932470
v 4.389629 0.700153 34.378349
v 3.943753 0.700153 34.378349
vt 0.320767 0.594752
vt 0.320767 0.461232
vt 0.363977 0.461232
vt 0.363977 0.594752
vt 0.283726 0.626779
vt 0.283726 0.429205
vt 0.233336 0.594752
vt 0.233336 0.461232
vt 0.276545 0.461232
vt 0.276545 0.594752
vt 0.196294 0.626779
vt 0.196294 0.429205
vt 0.137121 0.016284
vt 0.215147 0.016284
vt 0.215147 0.417045
vt 0.137121 0.417045
vt 0.293172 0.016284
vt 0.371198 0.016284
vt 0.371198 0.417045
vt 0.293172 0.417045
vt 0.807095 0.846473
vt 0.865681 0.848615
vt 0.926392 0.932963
vt 0.867770 0.932711
vt 0.924306 0.848866
vt 0.984978 0.935106
vt 0.748470 0.846221
vt 0.809183 0.930569
vt 0.572672 0.841688
vt 0.631259 0.843830
vt 0.691971 0.928176
vt 0.633348 0.927926
vt 0.689883 0.844080
vt 0.750557 0.930317
vt 0.514047 0.841438
vt 0.574763 0.925784
vt 0.588189 0.124357
vt 0.604910 0.133457
vt 0.612062 0.151095
vt 0.602965 0.167816
vt 0.585324 0.174969
vt 0.568603 0.165871
vt 0.561451 0.148231
vt 0.570548 0.131509
vt 0.595115 0.001992
vt 0.692691 0.055079
vt 0.734427 0.158022
vt 0.681340 0.255594
vt 0.578398 0.297334
vt 0.480823 0.244244
vt 0.439087 0.141305
vt 0.492175 0.043730
vt 0.378542 0.432813
vt 0.596260 0.432813
vt 0.596260 0.650533
vt 0.378542 0.650533
vt 0.704199 0.600014
vt 0.883038 0.600014
vt 0.844968 0.638083
vt 0.742268 0.638083
vt 0.883038 0.778854
vt 0.844968 0.740784
vt 0.704199 0.778854
vt 0.742268 0.740784
vt 0.063951 0.809989
vt 0.166651 0.809989
vt 0.198867 0.842205
vt 0.115302 0.872109
vt 0.031736 0.842205
vt 0.166651 0.707288
vt 0.198867 0.675072
vt 0.228772 0.758638
vt 0.063951 0.707288
vt 0.001831 0.758638
vt 0.031736 0.675072
vt 0.115301 0.645168
vt 0.776285 0.566666
vt 0.854250 0.524249
vt 0.875541 0.543258
vt 0.777965 0.596345
vt 0.775441 0.551757
vt 0.843556 0.514699
vt 0.887597 0.441995
vt 0.917277 0.440316
vt 0.694034 0.533317
vt 0.675025 0.554608
vt 0.703583 0.522621
vt 0.872689 0.442839
vt 0.845180 0.364034
vt 0.864190 0.342744
vt 0.651616 0.455355
vt 0.621937 0.457033
vt 0.666524 0.454510
vt 0.835632 0.374730
vt 0.762928 0.330685
vt 0.761248 0.301003
vt 0.684964 0.373102
vt 0.663673 0.354093
vt 0.695659 0.382652
vt 0.763772 0.345594
vt 0.264784 0.675072
vt 0.348350 0.645168
vt 0.348350 0.659504
vt 0.275342 0.685632
vt 0.431915 0.675072
vt 0.421356 0.685632
vt 0.234879 0.758638
vt 0.249215 0.758638
vt 0.461819 0.758638
vt 0.447483 0.758638
vt 0.264784 0.842205
vt 0.275342 0.831647
vt 0.431915 0.842205
vt 0.421356 0.831647
vt 0.348349 0.872109
vt 0.348349 0.857773
vt 0.145904 0.594751
vt 0.145904 0.461232
vt 0.189114 0.461232
vt 0.189114 0.594751
vt 0.108862 0.626778
vt 0.108862 0.429205
vt 0.021430 0.594751
vt 0.021430 0.461232
vt 0.064640 0.461232
vt 0.064640 0.594751
vt 0.101682 0.429205
vt 0.101682 0.626778
vt 0.059096 0.016284
vt 0.059096 0.417045
vt 0.455461 0.839297
vt 0.516137 0.925534
vn 0.000000 0.000000 1.000000
vn 0.000000 0.000000 1.000000
vn 0.000000 0.000000 1.000000
vn 0.000000 0.000000 1.000000
vn 0.000000 1.000000 0.000000
vn 0.000000 1.000000 0.000000
vn 0.000000 1.000000 0.000000
vn 0.000000 1.000000 0.000000
vn 0.000000 1.000000 0.000000
vn 0.000000 1.000000 0.000000
vn 0.000000 1.000000 0.000000
vn 0.000000 1.000000 0.000000
vn 0.000000 0.000000 -1.000000
vn 0.000000 0.000000 -1.000000
vn 0.000000 0.000000 -1.000000
vn 0.000000 0.000000 -1.000000
vn 0.000000 -1.000000 0.000000
vn 0.000000 -1.000000 0.000000
vn 0.000000 -1.000000 0.000000
vn 0.000000 -1.000000 0.000000
vn 1.000000 0.000000 0.000000
vn 1.000000 0.000000 0.000000
vn 1.000000 0.000000 0.000000
vn 1.000000 0.000000 0.000000
vn -1.000000 0.000000 0.000000
vn -1.000000 0.000000 0.000000
vn -1.000000 0.000000 0.000000
vn -1.000000 0.000000 0.000000
vn 0.000000 0.873722 0.486425
vn 0.000000 0.873722 0.486425
vn 0.000000 0.873722 0.486425
vn 0.000000 0.873722 0.486425
vn 0.486419 0.873726 0.000000
vn 0.486419 0.873726 0.000000
vn 0.486419 0.873726 0.000000
vn 0.486419 0.873726 0.000000
vn 0.000000 0.873730 -0.486412
vn 0.000000 0.873730 -0.486412
vn 0.000000 0.873730 -0.486412
vn 0.000000 0.873730 -0.486412
vn -0.486420 0.873725 0.000000
vn -0.486420 0.873725 0.000000
vn -0.486420 0.873725 0.000000
vn -0.486420 0.873725 0.000000
vn 0.000000 0.000000 1.000000
vn 0.000000 0.000000 1.000000
vn 0.000000 0.000000 1.000000
vn 0.000000 0.000000 1.000000
vn 1.000000 0.000000 0.000000
vn 1.000000 0.000000 0.000000
vn 1.000000 0.000000 0.000000
vn 1.000000 0.000000 0.000000
vn 0.000000 0.000000 -1.000000
vn 0.000000 0.000000 -1.000000
vn 0.000000 0.000000 -1.000000
vn 0.000000 0.000000 -1.000000
vn -1.000000 0.000000 0.000000
vn -1.000000 0.000000 0.000000
vn -1.000000 0.000000 0.000000
vn -1.000000 0.000000 0.000000
vn 0.000000 -0.939282 0.343147
vn 0.000000 -0.939282 0.343147
vn 0.000000 -0.939282 0.343147
vn 0.000000 -0.939282 0.343147
vn 0.000000 -0.939282 0.343146
vn 0.343145 -0.939282 -0.000000
vn 0.343145 -0.939282 -0.000000
vn 0.343145 -0.939282 -0.000000
vn 0.343145 -0.939282 -0.000000
vn 0.343145 -0.939282 -0.000000
vn 0.000000 -0.939282 -0.343146
vn 0.000000 -0.939282 -0.343146
vn 0.000000 -0.939282 -0.343146
vn 0.000000 -0.939282 -0.343146
vn 0.000000 -0.939282 -0.343146
vn -0.343143 -0.939283 0.000000
vn -0.343143 -0.939283 0.000000
vn -0.343143 -0.939283 0.000000
vn -0.343143 -0.939283 0.000000
vn -0.343143 -0.939283 0.000000
vn 0.077203 -0.022857 0.996753
vn 0.077203 -0.022857 0.996753
vn 0.077203 -0.022857 0.996753
vn 0.077203 -0.022857 0.996753
vn 0.692104 0.022867 0.721435
vn 0.692104 0.022867 0.721435
vn 0.692104 0.022867 0.721435
vn 0.692104 0.022867 0.721435
vn 0.996752 -0.022866 -0.077213
vn 0.996752 -0.022866 -0.077213
vn 0.996752 -0.022866 -0.077213
vn 0.996752 -0.022866 -0.077213
vn 0.721454 0.022878 -0.692084
vn 0.721454 0.022878 -0.692085
vn 0.721454 0.022878 -0.692085
vn 0.721454 0.022878 -0.692085
vn -0.077213 -0.022858 -0.996753
vn -0.077213 -0.022858 -0.996753
vn -0.077213 -0.022858 -0.996753
vn -0.077213 -0.022858 -0.996753
vn -0.692086 0.022870 -0.721452
vn -0.692086 0.022870 -0.721452
vn -0.692086 0.022870 -0.721452
vn -0.692086 0.022870 -0.721452
vn -0.996752 -0.022869 0.077214
vn -0.996752 -0.022869 0.077214
vn -0.996752 -0.022869 0.077214
vn -0.996752 -0.022869 0.077214
vn -0.721451 0.022872 0.692088
vn -0.721451 0.022872 0.692088
vn -0.721451 0.022872 0.692088
vn -0.721451 0.022872 0.692088
vn 0.000000 -1.000000 0.000005
vn 0.000000 -1.000000 0.000005
vn 0.000000 -1.000000 0.000005
vn 0.000000 -1.000000 0.000005
vn 0.000000 -1.000000 0.000001
vn 0.000000 -1.000000 0.000001
vn 0.000000 -1.000000 0.000001
vn 0.000000 -1.000000 0.000001
vn 0.000000 -1.000000 -0.000001
vn 0.000000 -1.000000 -0.000001
vn 0.000000 -1.000000 -0.000001
vn 0.000000 -1.000000 -0.000001
vn 0.000000 -1.000000 0.000001
vn 0.000000 -1.000000 0.000001
vn 0.000000 -1.000000 0.000001
vn 0.000000 -1.000000 0.000001
vn 0.000000 -1.000000 0.000000
vn 0.000000 -1.000000 0.000000
vn 0.000000 -1.000000 0.000000
vn 0.000000 -1.000000 0.000000
vn 0.000000 -1.000000 0.000000
vn 0.000000 -1.000000 0.000000
vn 0.000000 -1.000000 0.000000
vn 0.000000 -1.000000 0.000000
vn 0.000000 -1.000000 -0.000001
vn 0.000000 -1.000000 -0.000001
vn 0.000000 -1.000000 -0.000001
vn 0.000000 -1.000000 -0.000001
vn 0.000000 -1.000000 0.000002
vn 0.000000 -1.000000 0.000002
vn 0.000000 -1.000000 0.000002
vn 0.000000 -1.000000 0.000002
vn 0.329931 0.723479 0.606402
vn 0.329931 0.723479 0.606402
vn 0.329931 0.723479 0.606402
vn 0.329931 0.723479 0.606402
vn 0.639766 0.723477 0.259383
vn 0.639766 0.723477 0.259383
vn 0.639766 0.723477 0.259383
vn 0.639766 0.723477 0.259383
vn 0.606409 0.723475 -0.329928
vn 0.606409 0.723475 -0.329928
vn 0.606409 0.723475 -0.329928
vn 0.606409 0.723475 -0.329928
vn 0.259412 0.723472 -0.639761
vn 0.259412 0.723472 -0.639761
vn 0.259412 0.723472 -0.639761
vn 0.259412 0.723472 -0.639761
vn -0.329942 0.723473 -0.606404
vn -0.329942 0.723473 -0.606404
vn -0.329942 0.723473 -0.606404
vn -0.329942 0.723473 -0.606404
vn -0.639767 0.723475 -0.259388
vn -0.639767 0.723475 -0.259388
vn -0.639767 0.723475 -0.259388
vn -0.639767 0.723475 -0.259388
vn -0.606411 0.723472 0.329930
vn -0.606411 0.723472 0.329930
vn -0.606411 0.723472 0.329930
vn -0.606411 0.723472 0.329930
vn -0.259397 0.723474 0.639764
vn -0.259397 0.723474 0.639765
vn -0.259397 0.723474 0.639764
vn -0.259397 0.723474 0.639764
vn -0.206605 0.789943 0.577326
vn -0.206605 0.789943 0.577326
vn -0.206605 0.789943 0.577326
vn -0.206605 0.789943 0.577326
vn 0.293031 -0.789963 0.538601
vn 0.293031 -0.789963 0.538601
vn 0.293031 -0.789963 0.538601
vn 0.293031 -0.789963 0.538601
vn 0.206606 0.789940 0.577329
vn 0.206606 0.789940 0.577329
vn 0.206606 0.789940 0.577329
vn 0.206606 0.789940 0.577330
vn 0.568248 -0.789948 0.230383
vn 0.568248 -0.789948 0.230383
vn 0.568248 -0.789948 0.230383
vn 0.568248 -0.789948 0.230383
vn 0.577329 0.789941 0.206602
vn 0.577329 0.789941 0.206602
vn 0.577329 0.789941 0.206602
vn 0.577329 0.789941 0.206602
vn 0.538619 -0.789942 -0.293056
vn 0.538619 -0.789942 -0.293056
vn 0.538619 -0.789942 -0.293056
vn 0.538619 -0.789942 -0.293056
vn 0.577336 0.789936 -0.206603
vn 0.577336 0.789936 -0.206603
vn 0.577335 0.789936 -0.206603
vn 0.577336 0.789936 -0.206603
vn 0.230389 -0.789964 -0.568223
vn 0.230389 -0.789964 -0.568223
vn 0.230389 -0.789964 -0.568223
vn 0.230389 -0.789964 -0.568223
vn 0.206606 0.789925 -0.577349
vn 0.206606 0.789925 -0.577349
vn 0.206606 0.789925 -0.577349
vn 0.206606 0.789925 -0.577349
vn -0.293034 -0.789959 -0.538606
vn -0.293034 -0.789959 -0.538606
vn -0.293034 -0.789959 -0.538606
vn -0.293034 -0.789959 -0.538606
vn -0.206608 0.789927 -0.577347
vn -0.206608 0.789927 -0.577347
vn -0.206608 0.789927 -0.577347
vn -0.206608 0.789927 -0.577347
vn -0.568257 -0.789937 -0.230398
vn -0.568257 -0.789937 -0.230398
vn -0.568257 -0.789937 -0.230398
vn -0.568257 -0.789937 -0.230398
vn -0.577337 0.789934 -0.206607
vn -0.577337 0.789934 -0.206607
vn -0.577337 0.789934 -0.206607
vn -0.577337 0.789934 -0.206607
vn -0.538616 -0.789944 0.293056
vn -0.538616 -0.789944 0.293056
vn -0.538616 -0.789944 0.293056
vn -0.538616 -0.789944 0.293056
vn -0.577330 0.789939 0.206608
vn -0.577330 0.789939 0.206608
vn -0.577330 0.789939 0.206608
vn -0.577330 0.789939 0.206608
vn -0.230393 -0.789965 0.568221
vn -0.230393 -0.789965 0.568221
vn -0.230393 -0.789965 0.568221
vn -0.230393 -0.789965 0.568221
vn 0.000000 0.649217 -0.760604
vn 0.000000 0.649217 -0.760604
vn 0.000000 0.649217 -0.760604
vn 0.000000 0.649217 -0.760604
vn 0.760606 0.649214 0.000000
vn 0.760606 0.649214 0.000000
vn 0.760606 0.649214 0.000000
vn 0.760606 0.649214 0.000000
vn 0.000000 0.649217 0.760604
vn 0.000000 0.649217 0.760604
vn 0.000000 0.649217 0.760604
vn 0.000000 0.649217 0.760604
vn -0.760606 0.649214 0.000000
vn -0.760606 0.649214 0.000000
vn -0.760606 0.649214 0.000000
vn -0.760606 0.649214 0.000000
s off
g pCube10
usemtl lambert3SG
f 1/117/1 2/118/2 4/119/3 3/120/4
f 41/37/5 42/38/6 43/39/7 44/40/8 45/41/9 46/42/10 47/43/11 48/44/12
f 5/123/13 6/124/14 8/125/15 7/126/16
f 65/53/17 66/54/18 67/55/19 68/56/20
f 2/1/21 8/2/22 6/3/23 4/4/24
f 7/7/25 1/8/26 3/9/27 5/10/28
f 3/57/29 4/58/30 10/59/31 9/60/32
f 4/58/33 6/61/34 11/62/35 10/59/36
f 6/61/37 5/63/38 12/64/39 11/62/40
f 5/63/41 3/57/42 9/60/43 12/64/44
f 9/129/45 10/13/46 14/16/47 13/130/48
f 10/13/49 11/14/50 15/15/51 14/16/52
f 11/14/53 12/17/54 16/20/55 15/15/56
f 12/17/57 9/18/58 13/19/59 16/20/60
f 13/65/61 14/66/62 18/67/63 21/68/64 17/69/65
f 14/66/66 15/70/67 19/71/68 22/72/69 18/67/70
f 15/70/71 16/73/72 20/75/73 23/76/74 19/71/75
f 16/73/76 13/65/77 17/69/78 24/74/79 20/75/80
f 49/33/81 50/27/82 51/28/83 52/34/84
f 50/27/85 53/21/86 54/24/87 51/28/88
f 53/21/89 55/22/90 56/23/91 54/24/92
f 55/22/93 57/25/94 58/26/95 56/23/96
f 57/131/97 59/35/98 60/36/99 58/132/100
f 59/35/101 61/29/102 62/32/103 60/36/104
f 61/29/105 63/30/106 64/31/107 62/32/108
f 63/30/109 49/33/110 52/34/111 64/31/112
f 25/77/113 26/78/114 34/79/115 33/80/116
f 26/78/117 27/83/118 35/84/119 34/79/120
f 27/83/121 28/89/122 36/90/123 35/84/124
f 28/89/125 29/95/126 37/96/127 36/90/128
f 29/95/129 30/97/130 38/98/131 37/96/132
f 30/97/133 31/91/134 39/92/135 38/98/136
f 31/91/137 32/85/138 40/86/139 39/92/140
f 32/85/141 25/77/142 33/80/143 40/86/144
f 33/45/145 34/46/146 42/38/147 41/37/148
f 34/46/149 35/47/150 43/39/151 42/38/152
f 35/47/153 36/48/154 44/40/155 43/39/156
f 36/48/157 37/49/158 45/41/159 44/40/160
f 37/49/161 38/50/162 46/42/163 45/41/164
f 38/50/165 39/51/166 47/43/167 46/42/168
f 39/51/169 40/52/170 48/44/171 47/43/172
f 40/52/173 33/45/174 41/37/175 48/44/176
f 17/101/177 21/102/178 50/103/179 49/104/180
f 26/78/181 25/77/182 52/81/183 51/82/184
f 21/102/185 18/105/186 53/106/187 50/103/188
f 27/83/189 26/78/190 51/82/191 54/88/192
f 18/105/193 22/109/194 55/110/195 53/106/196
f 28/89/197 27/83/198 54/88/199 56/94/200
f 22/109/201 19/113/202 57/114/203 55/110/204
f 29/95/205 28/89/206 56/94/207 58/100/208
f 19/113/209 23/115/210 59/116/211 57/114/212
f 30/97/213 29/95/214 58/100/215 60/99/216
f 23/115/217 20/111/218 61/112/219 59/116/220
f 31/91/221 30/97/222 60/99/223 62/93/224
f 20/111/225 24/107/226 63/108/227 61/112/228
f 32/85/229 31/91/230 62/93/231 64/87/232
f 24/107/233 17/101/234 49/104/235 63/108/236
f 25/77/237 32/85/238 64/87/239 52/81/240
f 7/126/241 8/125/242 66/127/243 65/128/244
f 8/2/245 2/1/246 67/5/247 66/6/248
f 2/118/249 1/117/250 68/121/251 67/122/252
f 1/8/253 7/7/254 65/11/255 68/12/256
