# This file uses centimeters as units for non-parametric coordinates.

mtllib Bags.mtl
g default
v 28.338536 1.107214 -13.158000
v 30.759948 1.107214 -13.158000
v 28.338536 4.463916 -15.322775
v 30.759948 4.463916 -15.322775
v 28.338536 4.053670 -15.958903
v 30.759948 4.053670 -15.958903
v 28.338536 0.696968 -13.794128
v 30.759948 0.696968 -13.794128
v 28.043043 4.447094 -15.762277
v 31.093389 2.241962 -14.948134
v 29.570926 0.455472 -13.796007
v 28.043043 2.241962 -14.948134
v 31.093389 0.732388 -13.366621
v 28.043043 0.732388 -13.366621
v 29.570926 1.009304 -12.937235
v 31.093389 2.795794 -14.089362
v 29.570926 4.724010 -15.332891
v 28.043043 2.795794 -14.089362
v 31.093389 4.447094 -15.762277
v 29.570926 4.170178 -16.191663
v 29.570926 2.888099 -13.946234
v 29.570926 4.689196 -15.918411
v 29.570926 2.149657 -15.091263
v 29.570926 0.514199 -13.225908
v 31.415112 2.518878 -14.518748
v 27.770109 2.518878 -14.518748
vt 0.561043 0.437405
vt 0.554543 0.383922
vt 0.622962 0.383922
vt 0.622962 0.456124
vt 0.561043 0.330438
vt 0.622962 0.311719
vt 0.696808 0.383922
vt 0.689597 0.437405
vt 0.689597 0.330438
vt 0.706668 0.437405
vt 0.700168 0.383922
vt 0.768587 0.383922
vt 0.768587 0.456124
vt 0.706668 0.330438
vt 0.768587 0.311719
vt 0.842433 0.383922
vt 0.835222 0.437405
vt 0.835222 0.330438
vt 0.718888 0.148828
vt 0.700168 0.090057
vt 0.772371 0.090057
vt 0.772371 0.162920
vt 0.718888 0.033353
vt 0.772371 0.017452
vt 0.844573 0.090057
vt 0.825854 0.148828
vt 0.825854 0.033353
vt 0.699566 0.295962
vt 0.680847 0.237191
vt 0.753049 0.237191
vt 0.753049 0.310054
vt 0.699566 0.180487
vt 0.753049 0.164586
vt 0.825251 0.237191
vt 0.806533 0.295962
vt 0.806533 0.180487
vt 0.561043 0.148828
vt 0.554543 0.090057
vt 0.622962 0.090057
vt 0.622962 0.162920
vt 0.561043 0.033353
vt 0.622962 0.017452
vt 0.696808 0.090057
vt 0.689597 0.148828
vt 0.689597 0.033353
vt 0.835023 0.295962
vt 0.827811 0.237190
vt 0.901658 0.237190
vt 0.901658 0.310054
vt 0.835023 0.180487
vt 0.901658 0.164585
vt 0.970076 0.237190
vt 0.963577 0.295962
vt 0.963577 0.180487
vn -0.114619 0.467319 0.876627
vn -0.114619 0.467319 0.876627
vn -0.114619 0.467319 0.876627
vn -0.114619 0.467319 0.876627
vn 0.116734 0.466103 0.876996
vn 0.116734 0.466103 0.876996
vn 0.116734 0.466103 0.876996
vn 0.116734 0.466103 0.876996
vn 0.116973 0.601840 0.790004
vn 0.116973 0.601840 0.790004
vn 0.116973 0.601840 0.790004
vn 0.116973 0.601840 0.790004
vn -0.114850 0.601067 0.790903
vn -0.114850 0.601067 0.790903
vn -0.114850 0.601067 0.790903
vn -0.114850 0.601067 0.790903
vn -0.178881 0.983869 0.002005
vn -0.178881 0.983869 0.002005
vn -0.178881 0.983869 0.002005
vn -0.178881 0.983869 0.002005
vn 0.181541 0.983337 0.009520
vn 0.181541 0.983337 0.009520
vn 0.181541 0.983337 0.009520
vn 0.181541 0.983337 0.009520
vn 0.181541 0.396973 -0.899697
vn 0.181541 0.396973 -0.899697
vn 0.181541 0.396973 -0.899697
vn 0.181541 0.396972 -0.899698
vn -0.178881 0.404037 -0.897082
vn -0.178881 0.404037 -0.897082
vn -0.178881 0.404037 -0.897082
vn -0.178881 0.404037 -0.897082
vn -0.114850 -0.472521 -0.873804
vn -0.114850 -0.472521 -0.873804
vn -0.114850 -0.472521 -0.873804
vn -0.114850 -0.472521 -0.873804
vn 0.116973 -0.471383 -0.874137
vn 0.116973 -0.471383 -0.874137
vn 0.116973 -0.471383 -0.874137
vn 0.116973 -0.471383 -0.874137
vn 0.116734 -0.606622 -0.786373
vn 0.116734 -0.606622 -0.786373
vn 0.116734 -0.606622 -0.786373
vn 0.116734 -0.606622 -0.786373
vn -0.114619 -0.605785 -0.787329
vn -0.114619 -0.605785 -0.787329
vn -0.114619 -0.605785 -0.787329
vn -0.114619 -0.605785 -0.787329
vn -0.166256 -0.985113 0.043722
vn -0.166256 -0.985113 0.043722
vn -0.166256 -0.985113 0.043722
vn -0.166256 -0.985113 0.043722
vn 0.168853 -0.984964 0.036516
vn 0.168853 -0.984964 0.036516
vn 0.168853 -0.984964 0.036516
vn 0.168853 -0.984964 0.036516
vn 0.168853 -0.439580 0.882189
vn 0.168853 -0.439580 0.882189
vn 0.168853 -0.439580 0.882189
vn 0.168853 -0.439580 0.882189
vn -0.166256 -0.446206 0.879352
vn -0.166256 -0.446206 0.879352
vn -0.166256 -0.446206 0.879352
vn -0.166256 -0.446206 0.879351
vn 0.780359 0.206719 0.590175
vn 0.780359 0.206719 0.590175
vn 0.780359 0.206719 0.590175
vn 0.780359 0.206719 0.590175
vn 0.780359 -0.452345 -0.431768
vn 0.780359 -0.452345 -0.431768
vn 0.780359 -0.452345 -0.431768
vn 0.780359 -0.452345 -0.431768
vn 0.781049 -0.216286 -0.585818
vn 0.781049 -0.216286 -0.585818
vn 0.781049 -0.216286 -0.585818
vn 0.781049 -0.216286 -0.585818
vn 0.781049 0.444429 0.438687
vn 0.781049 0.444429 0.438687
vn 0.781049 0.444429 0.438687
vn 0.781049 0.444429 0.438687
vn -0.821060 -0.412928 -0.394145
vn -0.821060 -0.412928 -0.394145
vn -0.821060 -0.412928 -0.394145
vn -0.821060 -0.412928 -0.394145
vn -0.821060 0.188706 0.538749
vn -0.821060 0.188706 0.538749
vn -0.821060 0.188706 0.538749
vn -0.821060 0.188706 0.538749
vn -0.821665 0.405642 0.400402
vn -0.821665 0.405642 0.400401
vn -0.821665 0.405642 0.400402
vn -0.821665 0.405642 0.400402
vn -0.821665 -0.197410 -0.534693
vn -0.821665 -0.197410 -0.534693
vn -0.821665 -0.197410 -0.534693
vn -0.821665 -0.197410 -0.534693
s off
g pasted__pCube2 group22
usemtl initialShadingGroup
f 1/37/1 15/38/2 21/39/3 18/40/4
f 15/38/5 2/41/6 16/42/7 21/39/8
f 21/39/9 16/42/10 4/45/11 17/43/12
f 18/40/13 21/39/14 17/43/15 3/44/16
f 3/19/17 17/20/18 22/21/19 9/22/20
f 17/20/21 4/23/22 19/24/23 22/21/24
f 22/21/25 19/24/26 6/27/27 20/25/28
f 9/22/29 22/21/30 20/25/31 5/26/32
f 5/46/33 20/47/34 23/48/35 12/49/36
f 20/47/37 6/50/38 10/51/39 23/48/40
f 23/48/41 10/51/42 8/54/43 11/52/44
f 12/49/45 23/48/46 11/52/47 7/53/48
f 7/28/49 11/29/50 24/30/51 14/31/52
f 11/29/53 8/32/54 13/33/55 24/30/56
f 24/30/57 13/33/58 2/36/59 15/34/60
f 14/31/61 24/30/62 15/34/63 1/35/64
f 2/1/65 13/2/66 25/3/67 16/4/68
f 13/2/69 8/5/70 10/6/71 25/3/72
f 25/3/73 10/6/74 6/9/75 19/7/76
f 16/4/77 25/3/78 19/7/79 4/8/80
f 7/10/81 14/11/82 26/12/83 12/13/84
f 14/11/85 1/14/86 18/15/87 26/12/88
f 26/12/89 18/15/90 3/18/91 9/16/92
f 12/13/93 26/12/94 9/16/95 5/17/96
g default
v 28.338536 0.585001 -15.955182
v 30.759948 0.585001 -15.955182
v 28.338536 4.578789 -16.013093
v 30.759948 4.578789 -16.013093
v 28.338536 4.567815 -16.769954
v 30.759948 4.567815 -16.769954
v 28.338536 0.574026 -16.712044
v 30.759948 0.574026 -16.712044
v 28.043043 4.797342 -16.394772
v 31.093389 2.495751 -16.872388
v 29.570926 0.370194 -16.841567
v 28.043043 2.495751 -16.872388
v 31.093389 0.377602 -16.330685
v 28.043043 0.377602 -16.330685
v 29.570926 0.385010 -15.819804
v 31.093389 2.510567 -15.850625
v 29.570926 4.804750 -15.883891
v 28.043043 2.510567 -15.850625
v 31.093389 4.797342 -16.394772
v 29.570926 4.789934 -16.905654
v 29.570926 2.513036 -15.680331
v 29.570926 5.085394 -16.398949
v 29.570926 2.493282 -17.042681
v 29.570926 0.118001 -16.326921
v 31.415112 2.503159 -16.361506
v 27.770109 2.503159 -16.361506
vt 0.505926 0.959415
vt 0.498469 0.898054
vt 0.576965 0.898054
vt 0.576965 0.980892
vt 0.505926 0.836694
vt 0.576965 0.815217
vt 0.661689 0.898054
vt 0.653415 0.959415
vt 0.653415 0.836694
vt 0.673000 0.959415
vt 0.665543 0.898054
vt 0.744039 0.898054
vt 0.744039 0.980891
vt 0.673000 0.836693
vt 0.744039 0.815217
vt 0.828763 0.898054
vt 0.820489 0.959415
vt 0.820489 0.836693
vt 0.687020 0.628334
vt 0.665543 0.560906
vt 0.748381 0.560906
vt 0.748381 0.644502
vt 0.687020 0.495851
vt 0.748381 0.477607
vt 0.831218 0.560906
vt 0.809741 0.628334
vt 0.809741 0.495851
vt 0.664852 0.797139
vt 0.643376 0.729711
vt 0.726213 0.729711
vt 0.726213 0.813307
vt 0.664852 0.664656
vt 0.726213 0.646412
vt 0.809050 0.729711
vt 0.787574 0.797139
vt 0.787574 0.664656
vt 0.505926 0.628334
vt 0.498469 0.560906
vt 0.576965 0.560906
vt 0.576965 0.644501
vt 0.505926 0.495851
vt 0.576965 0.477607
vt 0.661688 0.560906
vt 0.653415 0.628334
vt 0.653415 0.495851
vt 0.820260 0.797139
vt 0.811987 0.729711
vt 0.896710 0.729711
vt 0.896710 0.813307
vt 0.820260 0.664656
vt 0.896710 0.646412
vt 0.975206 0.729711
vt 0.967750 0.797139
vt 0.967750 0.664656
vn -0.114619 -0.068019 0.991078
vn -0.114619 -0.068019 0.991078
vn -0.114619 -0.068019 0.991078
vn -0.114619 -0.068019 0.991078
vn 0.116734 -0.069246 0.990746
vn 0.116734 -0.069246 0.990746
vn 0.116734 -0.069246 0.990746
vn 0.116734 -0.069246 0.990746
vn 0.116973 0.091964 0.988868
vn 0.116973 0.091964 0.988868
vn 0.116973 0.091964 0.988868
vn 0.116973 0.091964 0.988868
vn -0.114850 0.090832 0.989222
vn -0.114850 0.090832 0.989221
vn -0.114850 0.090832 0.989222
vn -0.114850 0.090832 0.989222
vn -0.178881 0.833418 0.522893
vn -0.178881 0.833418 0.522892
vn -0.178881 0.833418 0.522893
vn -0.178881 0.833418 0.522893
vn 0.181541 0.828986 0.528985
vn 0.181541 0.828986 0.528985
vn 0.181541 0.828986 0.528985
vn 0.181541 0.828986 0.528985
vn 0.181541 0.813300 -0.552798
vn 0.181541 0.813300 -0.552798
vn 0.181541 0.813300 -0.552798
vn 0.181541 0.813300 -0.552798
vn -0.178881 0.817906 -0.546837
vn -0.178881 0.817906 -0.546837
vn -0.178881 0.817906 -0.546837
vn -0.178881 0.817906 -0.546837
vn -0.114850 0.062112 -0.991439
vn -0.114850 0.062112 -0.991439
vn -0.114850 0.062112 -0.991439
vn -0.114850 0.062112 -0.991439
vn 0.116973 0.063254 -0.991119
vn 0.116973 0.063254 -0.991119
vn 0.116973 0.063254 -0.991119
vn 0.116973 0.063254 -0.991119
vn 0.116734 -0.097943 -0.988322
vn 0.116734 -0.097943 -0.988322
vn 0.116734 -0.097943 -0.988322
vn 0.116734 -0.097943 -0.988322
vn -0.114619 -0.096726 -0.988689
vn -0.114619 -0.096726 -0.988689
vn -0.114619 -0.096726 -0.988689
vn -0.114619 -0.096726 -0.988689
vn -0.166256 -0.858696 -0.484767
vn -0.166256 -0.858696 -0.484767
vn -0.166256 -0.858696 -0.484767
vn -0.166256 -0.858696 -0.484767
vn 0.168853 -0.854753 -0.490801
vn 0.168853 -0.854753 -0.490801
vn 0.168853 -0.854753 -0.490801
vn 0.168853 -0.854753 -0.490801
vn 0.168853 -0.840164 0.515377
vn 0.168853 -0.840164 0.515377
vn 0.168853 -0.840164 0.515377
vn 0.168853 -0.840164 0.515377
vn -0.166256 -0.844280 0.509461
vn -0.166256 -0.844280 0.509461
vn -0.166256 -0.844280 0.509461
vn -0.166256 -0.844280 0.509461
vn 0.780359 -0.137307 0.610071
vn 0.780359 -0.137307 0.610071
vn 0.780359 -0.137307 0.610071
vn 0.780359 -0.137307 0.610071
vn 0.780359 -0.154938 -0.605833
vn 0.780359 -0.154938 -0.605833
vn 0.780359 -0.154938 -0.605833
vn 0.780359 -0.154938 -0.605833
vn 0.781049 0.126884 -0.611444
vn 0.781049 0.126884 -0.611444
vn 0.781049 0.126884 -0.611444
vn 0.781049 0.126884 -0.611444
vn 0.781049 0.144559 0.607508
vn 0.781049 0.144559 0.607508
vn 0.781049 0.144559 0.607508
vn 0.781049 0.144559 0.607508
vn -0.821060 -0.141437 -0.553042
vn -0.821060 -0.141437 -0.553042
vn -0.821060 -0.141437 -0.553042
vn -0.821060 -0.141437 -0.553042
vn -0.821060 -0.125342 0.556911
vn -0.821060 -0.125342 0.556911
vn -0.821060 -0.125342 0.556911
vn -0.821060 -0.125342 0.556911
vn -0.821665 0.131943 0.554489
vn -0.821665 0.131943 0.554489
vn -0.821665 0.131943 0.554489
vn -0.821665 0.131943 0.554489
vn -0.821665 0.115810 -0.558082
vn -0.821665 0.115810 -0.558082
vn -0.821665 0.115811 -0.558082
vn -0.821665 0.115810 -0.558082
s off
g pasted__pasted__pCube2 pasted__group22 group23
usemtl initialShadingGroup
f 27/91/97 41/92/98 47/93/99 44/94/100
f 41/92/101 28/95/102 42/96/103 47/93/104
f 47/93/105 42/96/106 30/99/107 43/97/108
f 44/94/109 47/93/110 43/97/111 29/98/112
f 29/73/113 43/74/114 48/75/115 35/76/116
f 43/74/117 30/77/118 45/78/119 48/75/120
f 48/75/121 45/78/122 32/81/123 46/79/124
f 35/76/125 48/75/126 46/79/127 31/80/128
f 31/100/129 46/101/130 49/102/131 38/103/132
f 46/101/133 32/104/134 36/105/135 49/102/136
f 49/102/137 36/105/138 34/108/139 37/106/140
f 38/103/141 49/102/142 37/106/143 33/107/144
f 33/82/145 37/83/146 50/84/147 40/85/148
f 37/83/149 34/86/150 39/87/151 50/84/152
f 50/84/153 39/87/154 28/90/155 41/88/156
f 40/85/157 50/84/158 41/88/159 27/89/160
f 28/55/161 39/56/162 51/57/163 42/58/164
f 39/56/165 34/59/166 36/60/167 51/57/168
f 51/57/169 36/60/170 32/63/171 45/61/172
f 42/58/173 51/57/174 45/61/175 30/62/176
f 33/64/177 40/65/178 52/66/179 38/67/180
f 40/65/181 27/68/182 44/69/183 52/66/184
f 52/66/185 44/69/186 29/72/187 35/70/188
f 38/67/189 52/66/190 35/70/191 31/71/192
g default
v 33.071731 0.751420 -14.057404
v 33.631186 0.449789 -16.393911
v 31.139681 5.079509 -15.078751
v 31.699136 4.777877 -17.415258
v 30.467821 4.751619 -15.197292
v 31.027276 4.449987 -17.533799
v 32.399871 0.423530 -14.175945
v 32.959326 0.121898 -16.512453
v 30.627096 5.195167 -14.910184
v 31.988200 2.107646 -17.346887
v 32.664711 -0.006181 -15.334232
v 31.283433 2.487623 -14.403499
v 33.469973 0.025494 -16.723295
v 32.765206 0.405472 -13.779907
v 33.571721 0.436471 -15.174201
v 32.895211 2.550298 -17.186856
v 31.433611 5.226166 -16.304478
v 32.190444 2.930275 -14.243468
v 31.331863 4.815189 -17.853572
v 30.526600 4.783514 -16.464509
v 32.694622 2.813724 -15.691106
v 30.840757 5.317003 -16.458158
v 31.485275 2.223522 -15.904481
v 33.243801 -0.066185 -15.187828
v 32.516038 2.288895 -17.577314
v 31.673879 2.742948 -14.060121
vt 0.039738 0.947295
vt 0.032307 0.886147
vt 0.110531 0.886147
vt 0.110531 0.968697
vt 0.039738 0.825000
vt 0.110531 0.803598
vt 0.194960 0.886147
vt 0.186715 0.947295
vt 0.186715 0.825000
vt 0.206232 0.947295
vt 0.198802 0.886147
vt 0.277025 0.886147
vt 0.277025 0.968697
vt 0.206232 0.825000
vt 0.277025 0.803598
vt 0.361454 0.886147
vt 0.353209 0.947295
vt 0.353209 0.825000
vt 0.220203 0.617364
vt 0.198802 0.550169
vt 0.281351 0.550169
vt 0.281351 0.633475
vt 0.220203 0.485340
vt 0.281351 0.467160
vt 0.363901 0.550169
vt 0.342499 0.617364
vt 0.342499 0.485340
vt 0.198113 0.785583
vt 0.176711 0.718388
vt 0.259261 0.718388
vt 0.259261 0.801694
vt 0.198113 0.653559
vt 0.259261 0.635379
vt 0.341810 0.718388
vt 0.320409 0.785583
vt 0.320409 0.653559
vt 0.039738 0.617363
vt 0.032307 0.550169
vt 0.110531 0.550169
vt 0.110531 0.633475
vt 0.039738 0.485340
vt 0.110531 0.467160
vt 0.194960 0.550169
vt 0.186715 0.617363
vt 0.186715 0.485340
vt 0.352982 0.785583
vt 0.344737 0.718388
vt 0.429166 0.718388
vt 0.429166 0.801694
vt 0.352982 0.653559
vt 0.429166 0.635379
vt 0.507390 0.718388
vt 0.499959 0.785583
vt 0.499959 0.653559
vn 0.880233 0.382956 0.280240
vn 0.880233 0.382956 0.280240
vn 0.880233 0.382956 0.280240
vn 0.880233 0.382956 0.280240
vn 0.933866 0.353066 0.056915
vn 0.933866 0.353066 0.056915
vn 0.933866 0.353066 0.056915
vn 0.933866 0.353066 0.056915
vn 0.881209 0.471852 0.028743
vn 0.881209 0.471852 0.028743
vn 0.881209 0.471852 0.028743
vn 0.881209 0.471852 0.028743
vn 0.828246 0.500052 0.252897
vn 0.828246 0.500052 0.252897
vn 0.828246 0.500052 0.252897
vn 0.828246 0.500052 0.252897
vn 0.183778 0.974602 0.127973
vn 0.183778 0.974602 0.127973
vn 0.183778 0.974602 0.127973
vn 0.183778 0.974602 0.127973
vn 0.285310 0.921578 -0.263236
vn 0.285310 0.921578 -0.263236
vn 0.285310 0.921578 -0.263236
vn 0.285310 0.921578 -0.263236
vn -0.799733 0.392040 -0.454678
vn -0.799733 0.392040 -0.454678
vn -0.799733 0.392040 -0.454678
vn -0.799733 0.392040 -0.454678
vn -0.890817 0.450163 -0.061626
vn -0.890817 0.450163 -0.061626
vn -0.890817 0.450163 -0.061626
vn -0.890817 0.450163 -0.061626
vn -0.931625 -0.358825 -0.057611
vn -0.931625 -0.358825 -0.057611
vn -0.931625 -0.358825 -0.057611
vn -0.931625 -0.358825 -0.057611
vn -0.878113 -0.386757 -0.281668
vn -0.878113 -0.386757 -0.281668
vn -0.878113 -0.386757 -0.281668
vn -0.878113 -0.386757 -0.281668
vn -0.824914 -0.505278 -0.253401
vn -0.824914 -0.505278 -0.253401
vn -0.824914 -0.505278 -0.253401
vn -0.824914 -0.505278 -0.253401
vn -0.879110 -0.475663 -0.030175
vn -0.879110 -0.475663 -0.030175
vn -0.879110 -0.475663 -0.030175
vn -0.879110 -0.475663 -0.030175
vn -0.228546 -0.937329 0.263022
vn -0.228546 -0.937329 0.263022
vn -0.228546 -0.937329 0.263022
vn -0.228546 -0.937329 0.263022
vn -0.147493 -0.983157 -0.107923
vn -0.147493 -0.983157 -0.107923
vn -0.147493 -0.983157 -0.107923
vn -0.147493 -0.983157 -0.107923
vn 0.870934 -0.486130 0.071766
vn 0.870934 -0.486130 0.071766
vn 0.870934 -0.486130 0.071766
vn 0.870934 -0.486130 0.071766
vn 0.779228 -0.445501 0.440832
vn 0.779228 -0.445501 0.440832
vn 0.779228 -0.445501 0.440832
vn 0.779228 -0.445501 0.440832
vn 0.770593 0.058908 -0.634599
vn 0.770593 0.058908 -0.634599
vn 0.770593 0.058908 -0.634599
vn 0.770593 0.058908 -0.634599
vn -0.312478 -0.469667 -0.825694
vn -0.312478 -0.469667 -0.825694
vn -0.312478 -0.469667 -0.825694
vn -0.312478 -0.469667 -0.825694
vn -0.406331 -0.262295 -0.875269
vn -0.406331 -0.262295 -0.875269
vn -0.406331 -0.262295 -0.875269
vn -0.406331 -0.262295 -0.875269
vn 0.678939 0.267354 -0.683786
vn 0.678939 0.267354 -0.683786
vn 0.678939 0.267354 -0.683786
vn 0.678939 0.267354 -0.683786
vn -0.640392 -0.236930 0.730591
vn -0.640392 -0.236930 0.730590
vn -0.640392 -0.236930 0.730591
vn -0.640392 -0.236930 0.730591
vn 0.347734 0.245309 0.904933
vn 0.347734 0.245309 0.904933
vn 0.347734 0.245309 0.904933
vn 0.347734 0.245309 0.904933
vn 0.263951 0.435530 0.860606
vn 0.263951 0.435530 0.860607
vn 0.263951 0.435530 0.860607
vn 0.263951 0.435530 0.860606
vn -0.726113 -0.047655 0.685922
vn -0.726113 -0.047655 0.685921
vn -0.726113 -0.047656 0.685921
vn -0.726113 -0.047656 0.685922
s off
g pasted__pasted__pCube2 pasted__group22 group24
usemtl initialShadingGroup
f 53/145/193 67/146/194 73/147/195 70/148/196
f 67/146/197 54/149/198 68/150/199 73/147/200
f 73/147/201 68/150/202 56/153/203 69/151/204
f 70/148/205 73/147/206 69/151/207 55/152/208
f 55/127/209 69/128/210 74/129/211 61/130/212
f 69/128/213 56/131/214 71/132/215 74/129/216
f 74/129/217 71/132/218 58/135/219 72/133/220
f 61/130/221 74/129/222 72/133/223 57/134/224
f 57/154/225 72/155/226 75/156/227 64/157/228
f 72/155/229 58/158/230 62/159/231 75/156/232
f 75/156/233 62/159/234 60/162/235 63/160/236
f 64/157/237 75/156/238 63/160/239 59/161/240
f 59/136/241 63/137/242 76/138/243 66/139/244
f 63/137/245 60/140/246 65/141/247 76/138/248
f 76/138/249 65/141/250 54/144/251 67/142/252
f 66/139/253 76/138/254 67/142/255 53/143/256
f 54/109/257 65/110/258 77/111/259 68/112/260
f 65/110/261 60/113/262 62/114/263 77/111/264
f 77/111/265 62/114/266 58/117/267 71/115/268
f 68/112/269 77/111/270 71/115/271 56/116/272
f 59/118/273 66/119/274 78/120/275 64/121/276
f 66/119/277 53/122/278 70/123/279 78/120/280
f 78/120/281 70/123/282 55/126/283 61/124/284
f 64/121/285 78/120/286 61/124/287 57/125/288
