# This file uses centimeters as units for non-parametric coordinates.

mtllib Rock3.mtl
g default
v -18.821391 2.323931 -9.448083
v -17.668529 3.582807 -7.634063
v -19.802912 4.157672 -7.917720
v -20.871841 2.216362 -8.377819
v -19.619438 0.931469 -8.134532
v -17.724114 1.149334 -7.679521
v -17.582461 2.280307 -5.146223
v -19.312640 4.115859 -5.284082
v -21.178795 3.375091 -5.883683
v -21.056074 1.225146 -5.941122
v -19.129165 0.889657 -5.500895
v -20.078563 2.148708 -4.116504
v -19.569734 4.346248 -6.595304
v -18.455169 4.001814 -6.346706
v -21.257708 2.869434 -7.182508
v -20.638737 3.892501 -6.865227
v -20.470806 0.938610 -7.074764
v -21.187146 1.633262 -7.215535
v -18.282181 0.959335 -6.558610
v -19.368871 0.815438 -6.820255
v -17.225988 3.027876 -6.292209
v -17.145156 1.611765 -6.330043
v -18.424095 3.513338 -4.978142
v -20.357359 3.868504 -5.353726
v -21.361925 2.273951 -5.784746
v -20.189428 0.914613 -5.563263
v -18.318422 1.242606 -5.174905
v -19.740612 3.422174 -4.332624
v -18.994184 2.188494 -4.336874
v -20.802429 2.830605 -4.736848
v -20.731867 1.594434 -4.769874
v -19.614310 1.197587 -4.522676
v -19.294888 3.436996 -9.037584
v -18.736547 4.025811 -7.858207
v -18.177331 3.040149 -8.790386
v -19.904743 2.266150 -9.228194
v -20.470506 3.354606 -8.423888
v -19.170434 1.256700 -9.095834
v -20.347642 1.202152 -8.481395
v -18.096498 1.624039 -8.828220
v -18.563559 0.983332 -8.070111
v -17.193163 2.334967 -7.758518
v -18.691185 3.643248 -8.728060
v -19.919261 3.060138 -9.040632
v -19.824678 1.403146 -9.084901
v -18.548535 1.144178 -8.794827
v -17.836112 2.320407 -8.579850
v -18.880727 4.186392 -6.954340
v -20.882562 3.489671 -7.584119
v -20.746270 1.101971 -7.647910
v -18.692278 0.873049 -7.173481
v -16.974269 2.321399 -6.776157
v -17.889406 3.875661 -5.769064
v -20.245533 4.274735 -6.242449
v -21.392106 2.251853 -6.724106
v -20.050669 0.849004 -6.464592
v -18.021500 1.054943 -5.978545
v -19.070611 2.987761 -4.481869
v -20.372276 3.705770 -4.629060
v -21.067951 2.224207 -4.982813
v -20.223149 1.081305 -4.829796
v -18.984802 1.484476 -4.522032
vt 0.791094 0.714154
vt 0.860034 0.608052
vt 0.917477 0.651408
vt 0.899868 0.729840
vt 0.738904 0.608052
vt 0.801673 0.564696
vt 0.912297 0.501951
vt 0.957305 0.597066
vt 0.975885 0.703168
vt 0.866509 0.791711
vt 0.788449 0.805109
vt 0.688953 0.729840
vt 0.683511 0.651408
vt 0.701628 0.501951
vt 0.806081 0.486264
vt 0.704144 0.791711
vt 0.667526 0.608052
vt 0.738904 0.410995
vt 0.801673 0.424393
vt 0.860034 0.410995
vt 0.943368 0.413407
vt 0.957305 0.475278
vt 0.612992 0.555375
vt 0.559848 0.661476
vt 0.488262 0.618120
vt 0.488262 0.539688
vt 0.661527 0.677966
vt 0.647589 0.715818
vt 0.491789 0.767578
vt 0.421085 0.661476
vt 0.375660 0.560878
vt 0.488262 0.483320
vt 0.559848 0.469922
vt 0.617199 0.794250
vt 0.394475 0.783264
vt 0.372458 0.710335
vt 0.421085 0.469922
vt 0.570731 0.850639
vt 0.492670 0.864037
vt 0.423426 0.850639
vt 0.092903 0.347935
vt 0.077217 0.441783
vt 0.015346 0.395868
vt 0.001948 0.319995
vt 0.199005 0.418523
vt 0.155649 0.466019
vt 0.015346 0.239004
vt 0.077217 0.221466
vt 0.199005 0.282360
vt 0.242361 0.352512
vt 0.092903 0.110684
vt 0.001948 0.183832
vt 0.155649 0.212209
vt 0.305106 0.216786
vt 0.320793 0.343254
vt 0.305106 0.454036
vt 0.199005 0.146197
vt 0.396062 0.244726
vt 0.382664 0.325716
vt 0.396062 0.380889
vt 0.193502 0.001992
vt 0.242361 0.098701
vt 0.315290 0.110074
vt 0.382664 0.168853
vt 0.768057 0.321640
vt 0.638649 0.320837
vt 0.647906 0.242405
vt 0.713918 0.199049
vt 0.672550 0.407092
vt 0.617378 0.393694
vt 0.512181 0.305151
vt 0.577755 0.199049
vt 0.643329 0.092948
vt 0.536387 0.407092
vt 0.441592 0.199049
vt 0.507603 0.155693
vt 0.752934 0.082764
vt 0.795952 0.161196
vt 0.516861 0.077261
vt 0.460514 0.393694
vt 0.414599 0.331823
vt 0.402346 0.103934
vt 0.615389 0.001992
vt 0.687529 0.026376
vt 0.534399 0.015390
vt 0.251489 0.610226
vt 0.139188 0.647860
vt 0.121579 0.566869
vt 0.183430 0.511697
vt 0.250607 0.732014
vt 0.172547 0.723733
vt 0.255015 0.469922
vt 0.322193 0.511697
vt 0.352832 0.647860
vt 0.334913 0.723733
vt 0.366459 0.566869
vt 0.107173 0.857705
vt 0.104528 0.735917
vt 0.182588 0.744197
vt 0.229057 0.816337
vt 0.010741 0.820070
vt 0.035284 0.744197
vt 0.259447 0.897328
vt 0.176113 0.956233
vt 0.054983 0.956233
vt 0.001948 0.901061
vt 0.117752 0.998008
vn 0.336822 0.425233 -0.840076
vn 0.336822 0.425233 -0.840076
vn 0.336822 0.425233 -0.840076
vn 0.336822 0.425233 -0.840076
vn 0.064665 0.880248 -0.470086
vn 0.064665 0.880248 -0.470086
vn 0.064665 0.880248 -0.470086
vn 0.064665 0.880248 -0.470086
vn 0.524160 0.722997 -0.450034
vn 0.524160 0.722997 -0.450034
vn 0.524160 0.722997 -0.450034
vn 0.524160 0.722997 -0.450034
vn -0.184497 0.250804 -0.950294
vn -0.184497 0.250804 -0.950294
vn -0.184497 0.250804 -0.950294
vn -0.184497 0.250804 -0.950294
vn -0.667004 0.186353 -0.721372
vn -0.667004 0.186353 -0.721372
vn -0.667004 0.186353 -0.721372
vn -0.667004 0.186353 -0.721372
vn -0.375444 0.681973 -0.627658
vn -0.375444 0.681973 -0.627658
vn -0.375444 0.681973 -0.627658
vn -0.375444 0.681973 -0.627658
vn -0.139637 -0.227926 -0.963614
vn -0.139637 -0.227926 -0.963614
vn -0.139637 -0.227926 -0.963614
vn -0.139637 -0.227926 -0.963614
vn -0.171421 -0.896729 -0.408035
vn -0.171421 -0.896729 -0.408035
vn -0.171421 -0.896729 -0.408035
vn -0.171421 -0.896729 -0.408035
vn -0.660132 -0.227638 -0.715826
vn -0.660132 -0.227638 -0.715826
vn -0.660132 -0.227638 -0.715826
vn -0.660132 -0.227638 -0.715826
vn 0.346418 -0.391833 -0.852327
vn 0.346418 -0.391833 -0.852327
vn 0.346418 -0.391833 -0.852327
vn 0.346418 -0.391833 -0.852327
vn 0.495121 -0.789663 -0.362336
vn 0.495121 -0.789663 -0.362336
vn 0.495121 -0.789663 -0.362336
vn 0.495121 -0.789663 -0.362336
vn 0.024185 -0.962336 -0.270784
vn 0.024185 -0.962336 -0.270784
vn 0.024185 -0.962336 -0.270784
vn 0.024185 -0.962336 -0.270784
vn 0.660152 0.057691 -0.748913
vn 0.660152 0.057691 -0.748913
vn 0.660152 0.057691 -0.748913
vn 0.660152 0.057691 -0.748913
vn 0.784398 0.301835 -0.541863
vn 0.784398 0.301835 -0.541863
vn 0.784398 0.301835 -0.541863
vn 0.784398 0.301835 -0.541863
vn 0.817750 -0.299618 -0.491441
vn 0.817750 -0.299618 -0.491441
vn 0.817750 -0.299618 -0.491441
vn 0.817750 -0.299618 -0.491441
vn 0.416267 0.907051 -0.063091
vn 0.416267 0.907051 -0.063091
vn 0.416267 0.907051 -0.063091
vn 0.416267 0.907051 -0.063091
vn 0.135430 0.977979 -0.158795
vn 0.135430 0.977979 -0.158795
vn 0.135430 0.977979 -0.158795
vn 0.135430 0.977979 -0.158795
vn 0.270882 0.956258 0.110429
vn 0.270882 0.956258 0.110429
vn 0.270882 0.956258 0.110429
vn 0.270882 0.956258 0.110429
vn -0.568106 0.757094 -0.322591
vn -0.568106 0.757094 -0.322591
vn -0.568106 0.757094 -0.322591
vn -0.568106 0.757094 -0.322591
vn -0.857656 0.266795 -0.439597
vn -0.857656 0.266795 -0.439597
vn -0.857656 0.266796 -0.439597
vn -0.857656 0.266795 -0.439597
vn -0.835127 0.539117 -0.109160
vn -0.835127 0.539117 -0.109160
vn -0.835127 0.539117 -0.109160
vn -0.835127 0.539117 -0.109160
vn -0.827311 -0.370044 -0.422638
vn -0.827311 -0.370044 -0.422638
vn -0.827311 -0.370044 -0.422638
vn -0.827311 -0.370044 -0.422638
vn -0.229935 -0.952720 -0.198631
vn -0.229935 -0.952720 -0.198632
vn -0.229935 -0.952720 -0.198631
vn -0.229935 -0.952720 -0.198632
vn -0.686944 -0.723084 -0.072506
vn -0.686944 -0.723084 -0.072506
vn -0.686944 -0.723084 -0.072506
vn -0.686944 -0.723084 -0.072506
vn 0.045409 -0.993519 -0.104202
vn 0.045409 -0.993519 -0.104202
vn 0.045409 -0.993519 -0.104202
vn 0.045409 -0.993519 -0.104202
vn 0.244365 -0.967772 -0.060855
vn 0.244365 -0.967772 -0.060855
vn 0.244365 -0.967772 -0.060855
vn 0.244365 -0.967772 -0.060855
vn 0.121323 -0.991744 0.041537
vn 0.121323 -0.991744 0.041537
vn 0.121323 -0.991744 0.041537
vn 0.121323 -0.991744 0.041537
vn 0.890480 -0.393201 -0.228995
vn 0.890480 -0.393201 -0.228995
vn 0.890480 -0.393201 -0.228995
vn 0.890480 -0.393201 -0.228995
vn 0.907003 0.388235 -0.163157
vn 0.907003 0.388235 -0.163157
vn 0.907003 0.388235 -0.163157
vn 0.907002 0.388235 -0.163157
vn 0.935628 0.044049 0.350229
vn 0.935628 0.044049 0.350229
vn 0.935628 0.044049 0.350229
vn 0.935628 0.044049 0.350229
vn 0.621618 0.781778 -0.049140
vn 0.621618 0.781778 -0.049140
vn 0.621618 0.781778 -0.049140
vn 0.621618 0.781778 -0.049140
vn 0.262424 0.910670 0.319083
vn 0.262424 0.910670 0.319083
vn 0.262424 0.910670 0.319083
vn 0.262424 0.910670 0.319083
vn 0.751760 0.360271 0.552324
vn 0.751760 0.360271 0.552324
vn 0.751760 0.360271 0.552324
vn 0.751760 0.360271 0.552324
vn -0.351893 0.922703 -0.157449
vn -0.351893 0.922703 -0.157449
vn -0.351893 0.922703 -0.157449
vn -0.351893 0.922703 -0.157449
vn -0.660380 0.738759 0.134664
vn -0.660380 0.738759 0.134664
vn -0.660380 0.738759 0.134664
vn -0.660380 0.738759 0.134664
vn -0.129433 0.950193 0.283514
vn -0.129433 0.950193 0.283514
vn -0.129433 0.950193 0.283514
vn -0.129433 0.950193 0.283514
vn -0.953163 -0.046423 -0.298873
vn -0.953163 -0.046423 -0.298873
vn -0.953163 -0.046423 -0.298873
vn -0.953163 -0.046423 -0.298873
vn -0.954086 -0.299029 0.017354
vn -0.954086 -0.299029 0.017354
vn -0.954086 -0.299029 0.017354
vn -0.954086 -0.299029 0.017354
vn -0.983073 0.183153 0.004730
vn -0.983073 0.183153 0.004730
vn -0.983073 0.183153 0.004730
vn -0.983073 0.183153 0.004730
vn -0.094047 -0.992865 -0.073316
vn -0.094047 -0.992864 -0.073316
vn -0.094047 -0.992865 -0.073316
vn -0.094047 -0.992865 -0.073316
vn -0.022766 -0.997699 0.063856
vn -0.022766 -0.997699 0.063856
vn -0.022766 -0.997699 0.063856
vn -0.022766 -0.997699 0.063856
vn -0.328819 -0.943260 0.046237
vn -0.328819 -0.943260 0.046237
vn -0.328819 -0.943260 0.046237
vn -0.328819 -0.943261 0.046237
vn 0.491630 -0.869989 0.037675
vn 0.491630 -0.869989 0.037675
vn 0.491630 -0.869989 0.037675
vn 0.491630 -0.869989 0.037675
vn 0.660816 -0.569124 0.489306
vn 0.660816 -0.569124 0.489306
vn 0.660816 -0.569124 0.489306
vn 0.660816 -0.569124 0.489306
vn 0.228803 -0.952499 0.200987
vn 0.228803 -0.952499 0.200987
vn 0.228803 -0.952499 0.200987
vn 0.228803 -0.952499 0.200987
vn 0.479114 0.206743 0.853058
vn 0.479114 0.206743 0.853058
vn 0.479114 0.206743 0.853058
vn 0.479114 0.206743 0.853058
vn 0.320766 0.593648 0.738032
vn 0.320766 0.593648 0.738032
vn 0.320766 0.593648 0.738032
vn 0.320765 0.593648 0.738032
vn 0.233840 0.138168 0.962408
vn 0.233840 0.138168 0.962408
vn 0.233840 0.138168 0.962408
vn 0.233840 0.138168 0.962408
vn -0.076200 0.895918 0.437636
vn -0.076200 0.895918 0.437636
vn -0.076200 0.895918 0.437636
vn -0.076200 0.895918 0.437636
vn -0.766669 0.537486 0.351180
vn -0.766669 0.537486 0.351180
vn -0.766669 0.537486 0.351180
vn -0.766669 0.537486 0.351180
vn -0.445163 0.203110 0.872110
vn -0.445163 0.203110 0.872110
vn -0.445163 0.203110 0.872110
vn -0.445163 0.203110 0.872110
vn -0.904476 0.205465 0.373775
vn -0.904476 0.205465 0.373775
vn -0.904476 0.205465 0.373775
vn -0.904476 0.205465 0.373775
vn -0.885247 -0.327411 0.330363
vn -0.885247 -0.327411 0.330363
vn -0.885247 -0.327411 0.330363
vn -0.885247 -0.327411 0.330363
vn -0.660152 -0.057691 0.748913
vn -0.660152 -0.057691 0.748913
vn -0.660152 -0.057691 0.748913
vn -0.660152 -0.057691 0.748913
vn -0.540208 -0.784982 0.303278
vn -0.540208 -0.784982 0.303278
vn -0.540209 -0.784982 0.303278
vn -0.540209 -0.784982 0.303278
vn -0.006023 -0.964092 0.265501
vn -0.006023 -0.964092 0.265501
vn -0.006023 -0.964092 0.265501
vn -0.006023 -0.964092 0.265501
vn -0.349990 -0.487237 0.800067
vn -0.349990 -0.487237 0.800067
vn -0.349990 -0.487237 0.800067
vn -0.349990 -0.487237 0.800067
vn 0.266517 -0.840623 0.471510
vn 0.266517 -0.840623 0.471510
vn 0.266517 -0.840623 0.471510
vn 0.266517 -0.840623 0.471510
vn 0.530193 -0.317691 0.786109
vn 0.530193 -0.317691 0.786109
vn 0.530193 -0.317691 0.786110
vn 0.530193 -0.317691 0.786109
vn 0.175340 -0.286353 0.941944
vn 0.175340 -0.286353 0.941944
vn 0.175340 -0.286353 0.941944
vn 0.175340 -0.286353 0.941944
s off
g pasted__pasted__pasted__pasted__pPlatonic2 pasted__pasted__pasted__group30 pasted__pasted__group31 pasted__group36 group73
usemtl pasted__lambert2SG8
f 1/86/1 33/87/2 43/88/3 35/89/4
f 3/71/5 34/66/6 43/70/7 33/74/8
f 2/65/9 35/69/10 43/70/11 34/66/12
f 1/86/13 36/90/14 44/91/15 33/87/16
f 4/1/17 37/4/18 44/10/19 36/11/20
f 3/71/21 33/74/22 44/80/23 37/81/24
f 1/86/25 38/94/26 45/95/27 36/90/28
f 5/41/29 39/42/30 45/43/31 38/44/32
f 4/1/33 36/11/34 45/16/35 39/12/36
f 1/86/37 40/93/38 46/96/39 38/94/40
f 6/51/41 41/48/42 46/47/43 40/52/44
f 5/41/45 38/44/46 46/47/47 41/48/48
f 1/86/49 35/89/50 47/92/51 40/93/52
f 2/23/53 42/26/54 47/32/55 35/33/56
f 6/31/57 40/37/58 47/32/59 42/26/60
f 2/65/61 34/66/62 48/67/63 14/68/64
f 3/71/65 13/72/66 48/67/67 34/66/68
f 8/73/69 14/68/70 48/67/71 13/72/72
f 3/9/73 37/4/74 49/3/75 16/8/76
f 4/1/77 15/2/78 49/3/79 37/4/80
f 9/7/81 16/8/82 49/3/83 15/2/84
f 4/1/85 39/12/86 50/13/87 18/5/88
f 5/41/89 17/45/90 50/46/91 39/42/92
f 10/14/93 18/5/94 50/13/95 17/17/96
f 5/41/97 41/48/98 51/53/99 20/49/100
f 6/51/101 19/57/102 51/53/103 41/48/104
f 11/54/105 20/49/106 51/53/107 19/57/108
f 6/31/109 42/26/110 52/25/111 22/30/112
f 2/23/113 21/24/114 52/25/115 42/26/116
f 7/29/117 22/30/118 52/25/119 21/24/120
f 2/23/121 14/27/122 53/28/123 21/24/124
f 8/73/125 23/77/126 53/78/127 14/68/128
f 7/29/129 21/24/130 53/28/131 23/34/132
f 3/71/133 16/75/134 54/76/135 13/72/136
f 9/82/137 24/79/138 54/76/139 16/75/140
f 8/73/141 13/72/142 54/76/143 24/79/144
f 4/1/145 18/5/146 55/6/147 15/2/148
f 10/14/149 25/15/150 55/6/151 18/5/152
f 9/7/153 15/2/154 55/6/155 25/15/156
f 5/41/157 20/49/158 56/50/159 17/45/160
f 11/54/161 26/55/162 56/50/163 20/49/164
f 10/56/165 17/45/166 56/50/167 26/55/168
f 6/51/169 22/61/170 57/62/171 19/57/172
f 7/29/173 27/35/174 57/36/175 22/30/176
f 11/54/177 19/57/178 57/62/179 27/63/180
f 7/29/181 23/34/182 58/38/183 29/39/184
f 8/73/185 28/83/186 58/84/187 23/77/188
f 12/97/189 29/98/190 58/99/191 28/100/192
f 8/73/193 24/79/194 59/85/195 28/83/196
f 9/7/197 30/20/198 59/21/199 24/22/200
f 12/97/201 28/100/202 59/103/203 30/104/204
f 9/7/205 25/15/206 60/19/207 30/20/208
f 10/14/209 31/18/210 60/19/211 25/15/212
f 12/97/213 30/104/214 60/107/215 31/105/216
f 10/56/217 26/55/218 61/59/219 31/60/220
f 11/54/221 32/58/222 61/59/223 26/55/224
f 12/97/225 31/105/226 61/106/227 32/101/228
f 11/54/229 27/63/230 62/64/231 32/58/232
f 7/29/233 29/39/234 62/40/235 27/35/236
f 12/97/237 32/101/238 62/102/239 29/98/240
